<svg width="92" height="51" viewBox="0 0 92 51" fill="none" xmlns="http://www.w3.org/2000/svg">
<circle cx="23.5" cy="23.5" r="23.5" fill="#F6B042"/>
<path d="M29.3164 28.8789L32.375 29.3359C32.3164 30.4609 32.2168 31.4219 32.0762 32.2188C31.9355 33.0039 31.7246 33.707 31.4434 34.3281C31.1738 34.9492 30.8398 35.4531 30.4414 35.8398C30.043 36.2148 29.5273 36.5254 28.8945 36.7715C28.2734 37.0176 27.5703 37.1875 26.7852 37.2812C26.0117 37.375 25.0742 37.4219 23.9727 37.4219C22.918 37.4219 21.9746 37.3926 21.1426 37.334C20.3105 37.2871 19.5488 37.1758 18.8574 37C18.1777 36.8125 17.5801 36.6367 17.0645 36.4727C16.5605 36.2969 16.1094 36.0098 15.7109 35.6113C15.3242 35.2129 14.9961 34.8555 14.7266 34.5391C14.4688 34.2227 14.2461 33.7422 14.0586 33.0977C13.8828 32.4414 13.748 31.8672 13.6543 31.375C13.5605 30.8828 13.4844 30.168 13.4258 29.2305C13.3789 28.293 13.3496 27.4727 13.3379 26.7695C13.3262 26.0664 13.3203 25.0938 13.3203 23.8516C13.3203 22.5391 13.3262 21.4844 13.3379 20.6875C13.3496 19.8906 13.3848 19.0234 13.4434 18.0859C13.502 17.1484 13.5723 16.4219 13.6543 15.9062C13.748 15.3906 13.8887 14.8281 14.0762 14.2188C14.2754 13.5977 14.498 13.1406 14.7441 12.8477C14.9902 12.543 15.3125 12.2148 15.7109 11.8633C16.1094 11.5117 16.543 11.2715 17.0117 11.1426C17.4922 11.002 18.0723 10.8613 18.752 10.7207C19.4316 10.5801 20.1582 10.4922 20.9316 10.457C21.7168 10.4219 22.625 10.4043 23.6562 10.4043C24.7227 10.4043 25.6309 10.4453 26.3809 10.5273C27.1309 10.5977 27.834 10.7441 28.4902 10.9668C29.1465 11.1777 29.6855 11.4648 30.1074 11.8281C30.5293 12.1797 30.8984 12.6426 31.2148 13.2168C31.543 13.791 31.7949 14.4707 31.9707 15.2559C32.1465 16.0293 32.2754 16.9609 32.3574 18.0508L29.2812 18.6484C29.2227 18.0508 29.1699 17.5527 29.123 17.1543C29.0762 16.7559 29.0059 16.3633 28.9121 15.9766C28.8301 15.5898 28.7598 15.2793 28.7012 15.0449C28.6543 14.7988 28.5488 14.5645 28.3848 14.3418C28.2207 14.1074 28.0859 13.9316 27.9805 13.8145C27.8867 13.6973 27.7051 13.5859 27.4355 13.4805C27.166 13.375 26.9375 13.3047 26.75 13.2695C26.5742 13.2227 26.2754 13.1816 25.8535 13.1465C25.4434 13.1113 25.0859 13.0938 24.7812 13.0938C24.4766 13.0938 24.0312 13.0938 23.4453 13.0938C22.625 13.0938 21.9512 13.1055 21.4238 13.1289C20.9082 13.1406 20.3867 13.1816 19.8594 13.252C19.3438 13.3105 18.9336 13.4043 18.6289 13.5332C18.3359 13.6504 18.0605 13.8145 17.8027 14.0254C17.5449 14.2246 17.3574 14.4766 17.2402 14.7812C17.1348 15.0742 17.0703 15.4316 17.0469 15.8535C16.9414 18.9473 16.8887 22.1055 16.8887 25.3281C16.8887 27.5781 16.9414 29.7754 17.0469 31.9199C17.1055 32.5879 17.293 33.1094 17.6094 33.4844C17.9375 33.8594 18.5645 34.1582 19.4902 34.3809C20.4277 34.6035 21.752 34.7148 23.4629 34.7148C24.377 34.7148 25.1445 34.6914 25.7656 34.6445C26.3867 34.5859 26.9082 34.4629 27.3301 34.2754C27.752 34.0762 28.0742 33.9004 28.2969 33.748C28.5195 33.584 28.6953 33.2734 28.8242 32.8164C28.9648 32.3594 29.0527 31.9785 29.0879 31.6738C29.1348 31.3574 29.1816 30.8242 29.2285 30.0742C29.2402 29.9102 29.2461 29.7812 29.2461 29.6875C29.2578 29.5938 29.2695 29.4707 29.2812 29.3184C29.293 29.1543 29.3047 29.0078 29.3164 28.8789Z" fill="#3D3D3D"/>
<path d="M63.377 32.8867L51.1426 25.2754V22.375L63.377 14.4824V18.6309L54.2539 23.6758L63.377 28.8789V32.8867ZM75.5762 10.3516L69.1426 37.457H65.9961L72.4473 10.3516H75.5762ZM90.834 25.2754L78.5645 32.8867V28.8965L87.7051 23.6934L78.5645 18.6309V14.4824L90.834 22.375V25.2754Z" fill="#F6B042"/>
</svg>
